<!--?xml version="1.0" encoding="utf-8"?-->
<!-- Generator: Adobe Illustrator 18.1.1, SVG Export Plug-In . SVG Version: 6.00 Build 0)  -->

<svg version="1.1" id="_x32_" xmlns="http://www.w3.org/2000/svg" xmlns:xlink="http://www.w3.org/1999/xlink" x="0px" y="0px" viewBox="0 0 512 512" style="width: 256px; height: 256px; opacity: 1;" xml:space="preserve">
<style type="text/css">
	.st0{fill:#4B4B4B;}
</style>
<g>
	<path class="st0" d="M192.866,271.265c-1.279-2.716-3.979-4.453-6.931-4.453h-14.953c-4.246,0-7.674,3.505-7.674,7.831v72.694
		c0,4.326,3.427,7.832,7.674,7.832h14.953c2.952,0,5.652-1.721,6.931-4.453l13.753-29.305c3.458-7.342,3.442-13.468,0-20.842
		L192.866,271.265z" style="fill: rgb(255, 255, 255);"></path>
	<path class="st0" d="M471.579,130.455H40.421C18.094,130.455,0,148.55,0,170.876v280.245c0,22.326,18.094,40.421,40.421,40.421
		h431.158c22.327,0,40.421-18.095,40.421-40.421V170.876C512,148.55,493.906,130.455,471.579,130.455z M317.366,247.091
		c0-3.032,1.5-5.858,4.01-7.516c2.495-1.658,5.652-1.926,8.368-0.694l15.111,6.853c2.273,1.026,4.879,1.026,7.152,0l15.126-6.853
		c2.716-1.232,5.874-0.963,8.369,0.694c2.494,1.658,4.01,4.484,4.01,7.516v29.59h-62.147V247.091z M394.78,318.585
		c0,6.663-5.29,12.063-11.842,12.063H265.387c-7.373,0-14.084,4.326-17.273,11.1L227.872,384.9
		c-6.048,12.9-18.853,21.126-32.89,21.126h-41.305c-20.131,0-36.457-16.642-36.457-37.152v-57.868v-57.884
		c0-20.526,16.326-37.152,36.457-37.152h41.305c14.037,0,26.842,8.21,32.89,21.126l20.242,43.152
		c3.189,6.774,9.9,11.084,17.273,11.084h117.552c6.552,0,11.842,5.4,11.842,12.079V318.585z" style="fill: rgb(255, 255, 255);"></path>
	<path class="st0" d="M190.782,85.558c0.007-8.652,3.466-16.327,9.126-22.026c5.692-5.653,13.365-9.111,22.026-9.119h68.13
		c8.661,0.008,16.334,3.466,22.026,9.119c5.66,5.699,9.111,13.374,9.126,22.026v25.184h33.948V85.558
		c-0.008-35.961-29.139-65.084-65.1-65.1h-68.13c-35.961,0.016-65.092,29.139-65.1,65.1v25.184h33.948V85.558z" style="fill: rgb(255, 255, 255);"></path>
</g>
</svg>
